<svg width="900" height="900" viewBox="0 0 900 900" fill="none" xmlns="http://www.w3.org/2000/svg">
<path fill-rule="evenodd" clip-rule="evenodd" d="M310.967 680.716C332.421 673.383 355.877 671.309 378.463 669.333C428.29 664.974 465.149 621.047 460.79 571.22C455.996 516.428 415.094 465.023 378.554 423.914C346.188 387.502 297.611 366.327 245.35 370.9C157.595 378.577 92.6803 455.94 100.358 543.694C101.979 562.229 100.635 581.275 99.3075 600.083C98.8817 606.116 98.4576 612.124 98.1336 618.084C97.9028 622.331 97.9686 626.646 98.3501 631.006C102.709 680.834 146.636 717.693 196.463 713.333C209.527 712.19 221.7 708.327 232.472 702.351C245.064 695.365 258.807 689.941 273.152 688.686C286.328 687.533 298.989 684.809 310.967 680.716ZM322.466 523.76C326.985 575.415 318.203 580.347 306.924 581.334C295.646 582.321 286.081 578.3 281.622 527.334C277.524 480.5 285.884 470.747 297.163 469.76C308.442 468.773 317.946 472.106 322.466 523.76ZM236.88 532.252C241.399 583.906 232.618 588.839 221.339 589.826C210.06 590.812 200.495 586.791 196.036 535.825C191.939 488.992 200.299 479.238 211.577 478.252C222.856 477.265 232.361 480.597 236.88 532.252Z" fill="#5EFF97"/>
<path fill-rule="evenodd" clip-rule="evenodd" d="M699.386 211.934C702.292 221.327 711.624 228 721.456 228C765.639 228 801.456 263.818 801.456 308C801.456 327.202 794.691 344.824 783.414 358.613C770.261 374.694 758.914 394.084 757.219 414.79C757.194 415.092 757.168 415.395 757.142 415.697C749.464 503.452 672.102 568.367 584.347 560.689C496.593 553.012 431.678 475.649 439.356 387.895C439.509 386.139 439.691 384.392 439.9 382.654C442.214 363.412 435.923 343.669 427.692 326.122C423.051 316.227 420.456 305.169 420.456 293.501C420.456 251.251 454.482 217.001 496.456 217.001C511.083 217.001 526.399 208.574 533.339 195.699C548.652 167.291 578.564 148 612.957 148C653.565 148 687.926 174.893 699.386 211.934ZM632.674 418.74C630.788 425.335 623.93 429.184 617.309 427.344C610.658 425.496 606.764 418.605 608.613 411.954L608.616 411.941C608.613 411.954 608.615 411.948 608.616 411.941L608.628 411.901L608.646 411.836C608.66 411.788 608.676 411.733 608.694 411.671C608.731 411.546 608.778 411.39 608.836 411.206C608.952 410.838 609.11 410.355 609.316 409.774C609.728 408.616 610.335 407.051 611.176 405.222C612.843 401.6 615.517 396.744 619.566 391.932C627.933 381.989 642.087 372.506 663.386 374.369C684.686 376.233 696.978 388.03 703.492 399.275C706.643 404.716 708.434 409.963 709.446 413.82C709.957 415.767 710.283 417.414 710.487 418.626C710.589 419.233 710.662 419.736 710.712 420.119C710.736 420.31 710.756 420.472 710.77 420.601C710.778 420.666 710.784 420.723 710.789 420.772L710.796 420.839L710.8 420.881C710.801 420.888 710.796 420.839 710.796 420.839L710.801 420.894C711.467 427.765 706.436 433.875 699.565 434.541C692.725 435.203 686.64 430.222 685.927 423.399L685.921 423.35L685.914 423.298C685.9 423.193 685.874 423.016 685.834 422.777C685.738 422.206 685.562 421.299 685.264 420.164C684.659 417.856 683.607 414.824 681.859 411.806C678.573 406.133 672.833 400.291 661.208 399.274C649.582 398.257 642.915 403.013 638.694 408.029C636.448 410.698 634.886 413.502 633.889 415.669C633.399 416.735 633.068 417.598 632.874 418.143C632.778 418.414 632.717 418.603 632.689 418.693L632.674 418.74ZM500.755 417.147C507.375 418.987 514.233 415.138 516.119 408.543L516.134 408.495C516.162 408.405 516.223 408.217 516.319 407.946C516.513 407.401 516.844 406.538 517.334 405.472C518.331 403.305 519.893 400.501 522.139 397.832C526.361 392.816 533.028 388.06 544.653 389.077C556.278 390.094 562.018 395.935 565.304 401.609C567.052 404.627 568.104 407.659 568.709 409.967C569.007 411.102 569.183 412.009 569.279 412.579C569.327 412.863 569.354 413.059 569.366 413.153L569.373 413.202C570.085 420.025 576.17 425.006 583.01 424.343C589.881 423.678 594.912 417.568 594.247 410.697L594.244 410.671C594.241 410.642 594.246 410.69 594.245 410.684L594.244 410.671L594.241 410.642L594.234 410.575C594.229 410.526 594.223 410.469 594.216 410.404C594.201 410.274 594.182 410.113 594.157 409.922C594.107 409.539 594.035 409.036 593.932 408.429C593.728 407.216 593.402 405.57 592.891 403.623C591.879 399.766 590.089 394.519 586.937 389.078C580.423 377.832 568.132 366.035 546.832 364.172C525.532 362.308 511.379 371.792 503.011 381.735C498.962 386.546 496.288 391.402 494.622 395.025C493.78 396.854 493.173 398.419 492.762 399.577C492.555 400.158 492.397 400.641 492.281 401.009C492.256 401.088 492.234 401.162 492.213 401.23C492.185 401.321 492.161 401.402 492.139 401.474C492.129 401.51 492.119 401.545 492.109 401.576C492.103 401.598 492.097 401.619 492.092 401.638L492.073 401.703L492.065 401.731L492.062 401.744C492.06 401.75 492.116 401.554 492.109 401.576L492.058 401.756C490.21 408.408 494.103 415.298 500.755 417.147Z" fill="#FF5F5F"/>
<path d="M561.625 620V659.75H601.375V620H621.25V659.75H661V679.625H621.25V719.375H661V739.25H621.25V779H601.375V739.25H561.625V779H541.75V739.25H502V719.375H541.75V679.625H502V659.75H541.75V620H561.625ZM601.375 679.625H561.625V719.375H601.375V679.625Z" fill="white"/>
<path d="M209.45 317C250.306 243.685 323.894 191.04 410.5 178.744" stroke="#E0E0E0" stroke-width="38" stroke-linecap="round"/>
</svg>
